<?xml version="1.0" standalone="no"?>
<!DOCTYPE svg PUBLIC "-//W3C//DTD SVG 20010904//EN"
 "http://www.w3.org/TR/2001/REC-SVG-20010904/DTD/svg10.dtd">
<svg version="1.0" xmlns="http://www.w3.org/2000/svg"
 width="512.000000pt" height="512.000000pt" viewBox="0 0 512.000000 512.000000"
 preserveAspectRatio="xMidYMid meet">

<g transform="translate(0.000000,512.000000) scale(0.100000,-0.100000)"
fill="#000000" stroke="none">
<path d="M736 5105 c-285 -57 -515 -232 -641 -488 -25 -51 -55 -130 -68 -177
l-22 -85 0 -1795 0 -1795 22 -85 c84 -318 335 -569 653 -653 l85 -22 1795 0
1795 0 85 22 c256 68 469 242 585 476 71 145 87 220 92 440 l5 187 -88 0
c-320 0 -574 151 -728 431 -181 330 -195 840 -32 1185 147 309 382 482 702
514 58 6 114 8 125 5 20 -7 20 0 17 547 -4 630 -3 623 -93 805 -114 232 -324
404 -580 476 l-80 22 -1780 2 c-1474 1 -1792 -1 -1849 -12z m1253 -1552 c88
-208 259 -609 379 -891 120 -283 222 -514 226 -515 4 -1 178 399 386 888 l379
890 410 3 c365 2 411 0 411 -13 0 -9 -6 -17 -12 -19 -112 -32 -168 -74 -195
-144 -17 -44 -18 -110 -18 -1202 l0 -1155 25 -50 c28 -57 68 -87 146 -112 30
-9 54 -23 54 -30 0 -11 -97 -13 -526 -13 -385 0 -525 3 -522 11 2 6 31 21 64
33 79 29 117 57 140 103 18 36 19 85 21 1128 1 706 -2 1083 -8 1070 -5 -11
-232 -542 -503 -1180 -485 -1141 -494 -1160 -522 -1163 l-29 -2 -484 1142
c-267 629 -488 1147 -493 1153 -5 5 -7 -463 -6 -1040 3 -965 4 -1053 20 -1086
29 -62 92 -105 196 -135 6 -2 12 -10 12 -19 0 -13 -37 -15 -301 -15 -274 0
-300 1 -297 16 2 10 22 23 52 31 68 20 118 56 147 106 l24 42 0 1175 0 1175
-27 46 c-32 54 -63 76 -138 100 -33 10 -56 23 -58 33 -3 15 37 16 441 16 l445
0 161 -377z"/>
<path d="M5000 3141 c-138 -29 -245 -166 -299 -383 -18 -71 -41 -218 -41 -265
0 -10 53 -13 230 -13 l230 0 0 330 c0 273 -2 330 -14 330 -7 0 -26 2 -42 4
-16 3 -45 1 -64 -3z"/>
<path d="M4650 2302 c0 -166 60 -350 157 -478 56 -74 157 -160 228 -194 35
-17 68 -30 74 -30 8 0 11 110 11 385 l0 385 -235 0 -235 0 0 -68z"/>
</g>
</svg>
