<?xml version="1.0" standalone="no"?>
<!DOCTYPE svg PUBLIC "-//W3C//DTD SVG 20010904//EN"
 "http://www.w3.org/TR/2001/REC-SVG-20010904/DTD/svg10.dtd">
<svg version="1.0" xmlns="http://www.w3.org/2000/svg"
 width="7813.000000pt" height="7813.000000pt" viewBox="0 0 7813.000000 7813.000000"
 preserveAspectRatio="xMidYMid meet">

<g transform="translate(0.000000,7813.000000) scale(0.100000,-0.100000)"
fill="#000000" stroke="none">
<path d="M0 39065 l0 -39065 39065 0 39065 0 0 39065 0 39065 -39065 0 -39065
0 0 -39065z m42731 11477 l7566 -15377 3662 -3 c2924 -2 3662 -5 3658 -15 -16
-39 -11708 -21952 -11714 -21954 -5 -2 -2754 4939 -6109 10980 l-6102 10982
3659 3 c2012 1 3659 4 3659 6 0 8 -5840 12170 -5848 12178 -4 4 -1435 -2736
-3179 -6090 l-3170 -6097 -4634 -3 c-2548 -1 -4636 1 -4640 5 -7 8 15610
30763 15620 30763 3 0 3411 -6920 7572 -15378z"/>
<path d="M41032 35142 c9 -24 4864 -8272 4868 -8272 3 0 984 1848 2180 4108
1196 2259 2183 4122 2193 4140 l19 32 -4632 0 c-2547 0 -4630 -4 -4628 -8z"/>
</g>
</svg>
